<svg width="420" height="520" viewBox="0 0 420 520" xmlns="http://www.w3.org/2000/svg" role="img" aria-labelledby="heroMockTitle">
  <title id="heroMockTitle">Insta DM assistant mockup</title>
  <defs>
    <linearGradient id="shell" x1="0%" y1="0%" x2="100%" y2="100%">
      <stop offset="0%" stop-color="#ffce83"/>
      <stop offset="40%" stop-color="#f5597f"/>
      <stop offset="100%" stop-color="#5f48f5"/>
    </linearGradient>
    <linearGradient id="screen" x1="0%" y1="0%" x2="100%" y2="100%">
      <stop offset="0%" stop-color="#1f1d47"/>
      <stop offset="100%" stop-color="#2d3f82"/>
    </linearGradient>
    <linearGradient id="chatBubbleA" x1="0%" y1="0%" x2="100%" y2="0%">
      <stop offset="0%" stop-color="#f58529" stop-opacity="0.9"/>
      <stop offset="70%" stop-color="#dd2a7b" stop-opacity="0.9"/>
    </linearGradient>
    <linearGradient id="chatBubbleB" x1="0%" y1="0%" x2="100%" y2="0%">
      <stop offset="0%" stop-color="#ffffff" stop-opacity="0.85"/>
      <stop offset="100%" stop-color="#d9dbff" stop-opacity="0.85"/>
    </linearGradient>
  </defs>
  <rect x="60" y="10" width="300" height="500" rx="48" fill="url(#shell)"/>
  <rect x="75" y="35" width="270" height="450" rx="36" fill="url(#screen)"/>
  <rect x="170" y="20" width="80" height="10" rx="5" fill="#fff" opacity="0.5"/>
  <circle cx="210" cy="485" r="28" fill="#0f0f19"/>
  <rect x="105" y="80" width="210" height="36" rx="14" fill="#fff" opacity="0.12"/>
  <rect x="105" y="136" width="190" height="72" rx="18" fill="url(#chatBubbleA)"/>
  <rect x="125" y="148" width="150" height="12" rx="6" fill="#fff" opacity="0.8"/>
  <rect x="125" y="166" width="120" height="10" rx="5" fill="#fff" opacity="0.7"/>
  <rect x="105" y="226" width="210" height="72" rx="18" fill="url(#chatBubbleB)"/>
  <rect x="125" y="238" width="120" height="12" rx="6" fill="#24223c" opacity="0.7"/>
  <rect x="125" y="256" width="150" height="10" rx="5" fill="#24223c" opacity="0.4"/>
  <rect x="105" y="310" width="140" height="72" rx="18" fill="url(#chatBubbleA)"/>
  <rect x="125" y="322" width="110" height="12" rx="6" fill="#fff" opacity="0.85"/>
  <rect x="125" y="340" width="90" height="10" rx="5" fill="#fff" opacity="0.7"/>
  <rect x="105" y="394" width="210" height="50" rx="25" fill="#fff" opacity="0.15"/>
  <circle cx="140" cy="418" r="14" fill="#ffcf8f"/>
  <rect x="165" y="408" width="120" height="20" rx="10" fill="#fff" opacity="0.5"/>
</svg>
