<svg width="120" height="120" viewBox="0 0 120 120" xmlns="http://www.w3.org/2000/svg" role="img" aria-labelledby="logoTitle">
  <title id="logoTitle">InstaFlow AI Logo</title>
  <defs>
    <linearGradient id="igGradient" x1="0%" y1="0%" x2="100%" y2="100%">
      <stop offset="0%" stop-color="#f58529"/>
      <stop offset="40%" stop-color="#dd2a7b"/>
      <stop offset="80%" stop-color="#8134af"/>
      <stop offset="100%" stop-color="#515bd4"/>
    </linearGradient>
  </defs>
  <rect x="5" y="5" width="110" height="110" rx="28" fill="url(#igGradient)"/>
  <circle cx="75" cy="43" r="9" fill="#fff" opacity="0.8"/>
  <path d="M40 35h40c3 0 5.5 2.5 5.5 5.5v38c0 3-2.5 5.5-5.5 5.5H40c-3 0-5.5-2.5-5.5-5.5v-38c0-3 2.5-5.5 5.5-5.5zm0 6v38h40v-38H40zm20 8c9.4 0 17 7.6 17 17s-7.6 17-17 17-17-7.6-17-17 7.6-17 17-17zm0 8c-5 0-9 4-9 9s4 9 9 9 9-4 9-9-4-9-9-9z" fill="#fff"/>
</svg>
